<?xml version="1.0" encoding="utf-8"?>
<!-- Generator: Adobe Illustrator 19.0.0, SVG Export Plug-In . SVG Version: 6.00 Build 0)  -->
<svg version="1.2" baseProfile="tiny" id="Layer_2" xmlns="http://www.w3.org/2000/svg" xmlns:xlink="http://www.w3.org/1999/xlink"
	 x="0px" y="0px" viewBox="0 0 184.5 121" xml:space="preserve">
<rect id="_x31_-R" x="201.2" y="119.5" transform="matrix(0.7071 -0.7071 0.7071 0.7071 -33.4352 196.2625)" fill="#44DDE8" width="38" height="38"/>
<rect id="_x32_-R" x="228.1" y="92.6" transform="matrix(0.7071 -0.7071 0.7071 0.7071 -6.5651 207.3925)" fill="#3DC6D0" width="38" height="38"/>
<rect id="_x33_-R" x="254.9" y="65.7" transform="matrix(0.7071 0.7071 -0.7071 0.7071 140.1598 -168.8782)" fill="#2FACB5" width="38" height="38"/>
<rect id="_x34_-R" x="228.1" y="38.9" transform="matrix(0.7071 0.7071 -0.7071 0.7071 113.2896 -157.747)" fill="#3DC6D0" width="38" height="38"/>
<rect id="_x35_-R" x="201.2" y="12" transform="matrix(0.7071 0.7071 -0.7071 0.7071 86.4195 -146.6171)" fill="#44DDE8" width="38" height="38"/>
<rect id="_x36_-R" x="194.3" y="-14.9" transform="matrix(0.7071 0.7071 -0.7071 0.7071 65.4073 -149.6293)" display="none" fill="#72F1FA" width="38" height="38"/>
<rect id="_x31_-L" x="194.3" y="146.4" transform="matrix(0.7071 -0.7071 0.7071 0.7071 -54.4474 199.2747)" display="none" fill="#9B88F9" width="38" height="38"/>
<rect id="_x32_-L" x="-67.7" y="119.5" transform="matrix(-0.7071 -0.7071 0.7071 -0.7071 -181.1442 201.9498)" fill="#7C63E9" width="38" height="38"/>
<rect id="_x33_-L" x="-94.6" y="92.6" transform="matrix(-0.7071 -0.7071 0.7071 -0.7071 -208.0143 137.0797)" fill="#6B51D5" width="38" height="38"/>
<rect id="_x34_-L" x="-121.5" y="65.7" transform="matrix(-0.7071 0.7071 -0.7071 -0.7071 -115.0325 217.1455)" fill="#5A3FC0" width="38" height="38"/>
<rect id="_x35_-L" x="-94.6" y="38.9" transform="matrix(-0.7071 0.7071 -0.7071 -0.7071 -88.1596 152.2751)" fill="#6B53D5" width="38" height="38"/>
<rect id="_x36_-L" x="-67.7" y="12" transform="matrix(-0.7071 0.7071 -0.7071 -0.7071 -61.2895 87.4051)" fill="#7C63E9" width="38" height="38"/>
<text transform="matrix(1 0 0 1 -7.438660e-005 97.7489)" fill="#593EBE" font-family="'Code-Bold'" font-size="88.1733px">M</text>
<text transform="matrix(1 0 0 1 130.1425 97.7489)" fill="#593EBE" font-family="'Code-Bold'" font-size="88.1733px">D</text>
<text transform="matrix(1 0 0 1 -2.189636e-003 117.4421)" fill="#36C9D3" font-family="'BauerBodoniStd-Roman'" font-size="16px">D</text>
<text transform="matrix(1 0 0 1 29.9978 117.4421)" fill="#36C9D3" font-family="'BauerBodoniStd-Roman'" font-size="16px">E</text>
<text transform="matrix(1 0 0 1 59.1179 117.4421)" fill="#36C9D3" font-family="'BauerBodoniStd-Roman'" font-size="16px">S</text>
<text transform="matrix(1 0 0 1 86.4617 117.4421)" fill="#36C9D3" font-family="'BauerBodoniStd-Roman'" font-size="16px">I</text>
<text transform="matrix(1 0 0 1 110.2537 117.4421)" fill="#36C9D3" font-family="'BauerBodoniStd-Roman'" font-size="16px">G</text>
<text transform="matrix(1 0 0 1 140.2537 117.4421)" fill="#36C9D3" font-family="'BauerBodoniStd-Roman'" font-size="16px">N</text>
<text transform="matrix(1 0 0 1 170.2527 117.4421)" fill="#36C9D3" font-family="'BauerBodoniStd-Roman'" font-size="16px">S</text>
<text id="XMLID_55_" transform="matrix(1 0 0 1 61.8835 97.7771)" fill="#593EBE" font-family="'Code-Light'" font-size="115px">H</text>
</svg>
