<?xml version="1.0" encoding="utf-8"?>
<!-- Generator: Adobe Illustrator 19.0.0, SVG Export Plug-In . SVG Version: 6.00 Build 0)  -->
<svg version="1.2" baseProfile="tiny" xmlns="http://www.w3.org/2000/svg" xmlns:xlink="http://www.w3.org/1999/xlink" x="0px"
	 y="0px" viewBox="0 0 215.1 215" xml:space="preserve" height="200" width="200">
<g id="Layer_2">
	<line id="XMLID_375_" display="none" stroke="#000000" stroke-miterlimit="10" x1="82.7" y1="-3.5" x2="82.7" y2="235.5"/>

		<rect id="_x31_-R" x="115.5" y="142.2" transform="matrix(0.7071 -0.7071 0.7071 0.7071 -74.61 142.3197)" fill="#44DDE8" width="38" height="38"/>

		<rect id="_x32_-R" x="142.4" y="115.4" transform="matrix(0.7071 -0.7071 0.7071 0.7071 -47.74 153.4497)" fill="#3DC6D0" width="38" height="38"/>

		<rect id="_x33_-R" x="169.2" y="88.5" transform="matrix(0.7071 0.7071 -0.7071 0.7071 131.1315 -101.6198)" fill="#2FACB5" width="38" height="38"/>

		<rect id="_x34_-R" x="142.4" y="61.6" transform="matrix(0.7071 0.7071 -0.7071 0.7071 104.2613 -90.4887)" fill="#3DC6D0" width="38" height="38"/>

		<rect id="_x35_-R" x="115.5" y="34.7" transform="matrix(0.7071 0.7071 -0.7071 0.7071 77.3912 -79.3588)" fill="#44DDE8" width="38" height="38"/>

		<rect id="_x36_-R" x="88.6" y="7.9" transform="matrix(0.7071 0.7071 -0.7071 0.7071 50.5212 -68.2288)" fill="#72F1FA" width="38" height="38"/>

		<rect id="_x31_-L" x="88.6" y="169.1" transform="matrix(0.7071 -0.7071 0.7071 0.7071 -101.4801 131.1898)" fill="#9B88F9" width="38" height="38"/>

		<rect id="_x32_-L" x="61.6" y="142.2" transform="matrix(-0.7071 -0.7071 0.7071 -0.7071 23.6115 332.2245)" fill="#7C63E9" width="38" height="38"/>

		<rect id="_x33_-L" x="34.7" y="115.4" transform="matrix(-0.7071 -0.7071 0.7071 -0.7071 -3.2586 267.3544)" fill="#6B51D5" width="38" height="38"/>

		<rect id="_x34_-L" x="7.9" y="88.5" transform="matrix(-0.7071 0.7071 -0.7071 -0.7071 121.8697 164.4795)" fill="#5A3FC0" width="38" height="38"/>

		<rect id="_x35_-L" x="34.7" y="61.6" transform="matrix(-0.7071 0.7071 -0.7071 -0.7071 148.7427 99.6091)" fill="#6B53D5" width="38" height="38"/>

		<rect id="_x36_-L" x="61.6" y="34.7" transform="matrix(-0.7071 0.7071 -0.7071 -0.7071 175.6127 34.739)" fill="#7C63E9" width="38" height="38"/>
</g>
</svg>
